<svg width="213" height="483" viewBox="0 0 213 483" fill="none" xmlns="http://www.w3.org/2000/svg">
<path d="M49.7295 458.681C49.7295 458.681 35.4948 467.327 30.393 469.867C25.2911 472.406 13.5969 474.945 13.5969 478.009C13.5969 481.073 26.8448 482.584 36.5026 482.584C46.1603 482.584 70.5986 481.052 73.6639 480.486C76.7292 479.919 76.7082 476.918 76.2043 472.343C75.0298 466.657 73.5012 461.05 71.6274 455.554L49.7295 458.681Z" fill="#D33833" stroke="#D33833" stroke-width="0.0818673" stroke-miterlimit="10"/>
<path d="M138.832 454.673C138.832 454.673 140.365 477.044 146.979 479.08C153.592 481.115 163.775 480.612 164.782 472.973C165.79 465.334 158.673 446.53 158.673 446.53C158.673 446.53 142.906 455.177 138.832 454.673Z" fill="#D33833" stroke="#D33833" stroke-width="0.0818673" stroke-miterlimit="10"/>
<path d="M50.1492 228.108C50.1492 228.108 13.0088 312.052 13.0088 326.743C13.0088 341.433 11.4761 345.63 16.053 356.752C20.63 367.875 43.1578 448.944 43.1578 448.944L46.223 460.129C50.3562 463.139 55.3439 464.75 60.4577 464.725C69.1077 464.725 71.1443 465.229 72.173 460.654C73.2018 456.079 74.7135 452.511 73.7057 448.44C72.6979 444.369 71.6062 442.837 69.6326 435.723C67.6591 428.608 64.0269 421.977 63.5231 404.684C63.0192 387.392 56.0278 342.167 56.0278 339.628C56.0278 337.089 85.274 285.547 85.274 285.547C85.274 285.547 85.7779 326.763 88.8432 336.417C91.9085 346.071 129.154 430.728 129.154 430.728C129.154 430.728 130.183 436.814 131.253 441.41C132.324 446.006 134.822 454.127 134.822 454.127C137.391 456.241 140.653 457.326 143.976 457.17C150.086 457.17 160.269 449.531 160.269 449.531C160.269 449.531 159.261 441.913 158.736 435.303C158.211 428.692 153.655 421.557 153.655 418.514C153.655 415.471 148.427 375.073 144.375 363.951C140.323 352.828 130.12 329.366 129.679 324.791C129.238 320.216 131.19 286.638 131.19 286.638L135.263 252.557L50.1492 228.108Z" fill="#1F1F89" stroke="#F7F8FC" stroke-width="0.0818673" stroke-miterlimit="10"/>
<path d="M111.771 61.0601C111.771 61.0601 81.1388 40.5148 76.6879 35.1634C72.322 30.1026 68.3027 24.753 64.6576 19.1511C61.9913 14.6811 55.0629 5.86699 49.7301 5.86699C44.3974 5.86699 43.0747 8.74207 40.4083 10.0642C37.7419 11.3863 33.9418 15.3527 34.3827 17.5772C34.8236 19.8017 33.9208 22.6767 36.5872 24.0198C38.6771 25.4499 40.397 27.356 41.605 29.5811L39.1906 37.9755C39.1906 37.9755 46.3919 37.8076 49.0583 37.8076C51.4572 37.6884 53.8435 37.3867 56.1966 36.9052H58.863C58.863 36.9052 82.8814 69.9791 86.8705 75.7712C90.8596 81.5633 94.3448 86.495 97.0111 90.4614C99.6775 94.4277 111.708 107.061 111.708 107.061C111.708 107.061 130.708 109.915 133.837 99.6743C136.965 89.4331 145.279 83.9348 143.054 81.2486C140.828 78.5624 111.771 61.0601 111.771 61.0601Z" fill="white" stroke="#263238" stroke-width="0.0818673" stroke-miterlimit="10"/>
<path d="M123.443 68.2372C111.182 74.1762 103.855 86.3271 100.139 94.4487C104.653 99.7162 111.77 107.145 111.77 107.145C111.77 107.145 130.771 109.999 133.899 99.7582C137.027 89.517 145.341 84.0187 143.116 81.3325C141.835 79.8215 131.82 73.4417 123.443 68.2372Z" fill="#FFD400" stroke="#263238" stroke-width="0.0818673" stroke-miterlimit="10"/>
<path d="M48.1131 143.829C48.1131 143.829 33.1015 101.458 30.5191 94.2179C27.9367 86.9777 26.908 83.8928 26.908 83.8928C26.908 83.8928 33.1015 72.5184 33.1015 67.8595C33.1015 63.2006 24.8295 58.5627 24.8295 58.5627L20.6305 50.2942C20.6305 50.2942 12.8832 50.8189 12.3584 53.9038C12.0838 55.6954 11.5608 57.44 10.8047 59.0874C10.8047 59.0874 1 64.7745 1 69.4124C1 74.0503 12.3584 90.0836 12.3584 90.0836C12.3584 90.0836 22.184 140.219 25.8162 153.65C29.4483 167.081 44.5019 179.799 49.0788 175.224C53.6558 170.649 48.1131 143.829 48.1131 143.829Z" fill="white" stroke="#263238" stroke-width="0.0818673" stroke-miterlimit="10"/>
<path d="M152.962 14.9958C152.962 14.9958 144.816 17.0944 142.78 22.6137C141.426 26.8369 139.36 30.7975 136.67 34.3239C135.137 35.8349 126.487 34.8276 126.487 38.3952C126.836 41.5619 127.694 44.6517 129.028 47.5451C129.028 47.5451 122.939 72.9801 125.983 73.9874C129.028 74.9948 139.21 79.5906 139.21 79.5906L137.111 85.6976L168.163 93.3155L171.207 83.1583C171.207 83.1583 190.103 81.0596 200.222 69.4124C210.342 57.7652 216.493 37.3669 208.368 22.6137C200.243 7.8606 174.272 -3.32493 161.024 2.27833C147.776 7.88158 152.962 14.9958 152.962 14.9958Z" fill="white" stroke="#263238" stroke-width="0.0818673" stroke-miterlimit="10"/>
<path d="M200.285 69.4124C210.468 57.7233 216.557 37.3669 208.432 22.6137C200.306 7.8606 174.336 -3.32493 161.088 2.27833C147.84 7.88158 152.962 14.9958 152.962 14.9958C152.962 14.9958 160.584 10.3999 159.051 14.9958C157.518 19.5918 150.926 20.5781 153.466 24.1457C156.007 27.7133 153.97 33.2956 151.934 35.8349C149.897 38.3742 145.824 41.4382 148.889 42.9702C151.955 44.5021 156.007 38.3952 158.547 40.8716C161.088 43.3479 159.576 52.5607 156.448 56.1283C154.558 58.2977 152.089 59.8845 149.33 60.7033C149.33 60.7033 146.79 70.8815 156.952 79.024C167.113 87.1666 171.207 83.0953 171.207 83.0953C171.207 83.0953 190.103 81.1226 200.285 69.4124Z" fill="#BE9837" stroke="#263238" stroke-width="0.0818673" stroke-miterlimit="10"/>
<path d="M52.1858 216.419L49.1415 230.144C61.1962 240.51 75.7627 247.529 91.3837 250.5C116.83 255.075 132.093 253.543 135.138 252.599C138.182 251.655 141.247 236.839 141.247 236.839C141.247 236.839 130.057 246.996 102.574 236.314C86.0261 229.872 69.8983 222.401 54.2853 213.943L52.1858 216.419Z" fill="#FFD400" stroke="#F7F8FC" stroke-width="0.0818673" stroke-miterlimit="10"/>
<path d="M142.276 94.9523C142.276 94.9523 123.947 87.8381 114.793 96.4843C105.639 105.131 96.4644 125.466 92.8952 137.176C89.326 148.886 67.4701 190.585 63.9009 198.203C60.3318 205.821 45.0053 208.382 49.2044 215.517C53.4034 222.652 69.5696 238.391 103.141 242.966C136.712 247.541 147.357 239.756 150.506 232.704C153.655 225.653 150.506 219.462 153.571 214.887C156.636 210.312 186.638 163.01 189.704 145.633C192.769 128.257 196.821 117.659 189.704 108.488C182.586 99.3174 142.276 94.9523 142.276 94.9523Z" fill="#FFD400" stroke="#263238" stroke-width="0.0818673" stroke-miterlimit="10"/>
<path d="M143.389 184.479C145.699 182.632 147.903 180.722 149.898 178.77" stroke="#F7F8FC" stroke-width="0.0818673" stroke-miterlimit="10"/>
<path d="M89.348 213.376C89.348 213.376 115.466 203.786 136.272 189.662" stroke="#F7F8FC" stroke-width="0.0818673" stroke-miterlimit="10"/>
<path d="M134.634 199.127C134.634 199.127 111.224 211.341 99.5297 216.419" stroke="#F7F8FC" stroke-width="0.0818673" stroke-miterlimit="10"/>
<path d="M120.378 149.285L82.7342 160.009L78.1573 164.059L71.5228 166.619C71.5228 166.619 64.4265 172.6 60.8363 172.6H58.7368C58.7368 172.6 53.1311 176.168 49.058 175.161C44.985 174.153 41.9407 162.443 43.9772 149.726C46.0138 137.008 45.4889 142.591 48.5541 142.087C51.6194 141.583 51.5985 141.08 51.5985 141.08C51.5985 141.08 54.1389 137.008 56.1754 136.505C58.0984 136.375 60.0236 136.721 61.781 137.512C61.781 137.512 90.7963 117.176 98.9214 108.509C104.686 102.648 111.015 97.3687 117.817 92.7489C117.817 92.7489 124.934 86.6419 130.54 93.2525" fill="#FFD400"/>
<path d="M120.378 149.285L82.7342 160.009L78.1573 164.059L71.5228 166.619C71.5228 166.619 64.4265 172.6 60.8363 172.6H58.7368C58.7368 172.6 53.1311 176.168 49.058 175.161C44.985 174.153 41.9407 162.443 43.9772 149.726C46.0138 137.008 45.4889 142.591 48.5541 142.087C51.6194 141.583 51.5985 141.08 51.5985 141.08C51.5985 141.08 54.1389 137.008 56.1754 136.505C58.0984 136.375 60.0236 136.721 61.781 137.512C61.781 137.512 90.7963 117.176 98.9214 108.509C104.686 102.648 111.015 97.3687 117.817 92.7489C117.817 92.7489 124.934 86.6419 130.54 93.2525" stroke="#263238" stroke-width="0.0818673" stroke-miterlimit="10"/>
<path d="M48.5121 163.87C49.3083 166.716 51.1737 169.145 53.7189 170.649" stroke="#F7F8FC" stroke-width="0.0818673" stroke-miterlimit="10"/>
<path d="M50.6743 145.319C49.0644 149.251 48.107 153.419 47.8399 157.659" stroke="#F7F8FC" stroke-width="0.0818673" stroke-miterlimit="10"/>
<path d="M57.2883 141.121C57.2883 141.121 55.1888 151.803 62.873 157.386" stroke="#F7F8FC" stroke-width="0.0818673" stroke-miterlimit="10"/>
<path d="M187.563 100.954C187.563 100.954 163.649 89.7688 156.07 87.7332C148.491 85.6975 138.77 81.6262 131.653 83.6619C124.535 85.6975 118.93 87.7332 117.901 92.8118C116.872 97.8904 121.974 91.2798 125.018 101.458C128.062 111.636 138.266 142.15 159.114 143.682C179.962 145.214 190.607 127.397 191.699 118.247C192.79 109.097 191.111 103.997 187.563 100.954Z" fill="white" stroke="#263238" stroke-width="0.0818673" stroke-miterlimit="10"/>
</svg>
